<svg width="24" height="24" viewBox="0 0 24 24" fill="none" xmlns="http://www.w3.org/2000/svg">
<g clip-path="url(#clip0_619_339)">
<path d="M23.948 18.5956C23.8801 18.3911 23.4482 18.0898 22.6527 17.6924C22.4371 17.5671 22.13 17.3969 21.7326 17.181C21.3349 16.965 20.9739 16.7661 20.6503 16.5842C20.326 16.4024 20.0221 16.2263 19.7382 16.0561C19.6929 16.022 19.5508 15.9227 19.3122 15.7576C19.0734 15.5929 18.8719 15.4707 18.7068 15.391C18.5421 15.3118 18.3801 15.2719 18.221 15.2719C17.9938 15.2719 17.7099 15.4339 17.3692 15.7576C17.0284 16.0816 16.7158 16.4336 16.4318 16.8147C16.1478 17.1955 15.8466 17.5475 15.5288 17.8714C15.2105 18.1954 14.9489 18.3572 14.7446 18.3572C14.642 18.3572 14.5142 18.3286 14.3609 18.2722C14.2077 18.2154 14.0912 18.1668 14.0112 18.1276C13.9319 18.0875 13.7958 18.0082 13.6025 17.8885C13.4088 17.7692 13.3011 17.7038 13.2785 17.6924C11.7217 16.8286 10.3866 15.8399 9.27289 14.7266C8.15951 13.6127 7.17073 12.2777 6.30714 10.7208C6.2958 10.6981 6.23031 10.5901 6.11108 10.397C5.99168 10.2038 5.9121 10.0676 5.87234 9.98781C5.83257 9.90835 5.78428 9.79181 5.72756 9.63844C5.67084 9.48506 5.64236 9.3573 5.64236 9.25491C5.64236 9.05049 5.80434 8.789 6.12822 8.47079C6.45204 8.15276 6.8044 7.8515 7.18494 7.56762C7.56578 7.28374 7.91778 6.97114 8.24172 6.63036C8.56554 6.2894 8.72745 6.00546 8.72745 5.77824C8.72745 5.61925 8.68769 5.45716 8.60823 5.29244C8.52871 5.12737 8.40656 4.92594 8.24172 4.68719C8.07682 4.44856 7.97742 4.30665 7.94327 4.26098C7.773 3.97709 7.59706 3.67315 7.41503 3.34927C7.233 3.02545 7.03431 2.66449 6.81831 2.26682C6.60249 1.86932 6.43216 1.5624 6.30702 1.34651C5.90953 0.551227 5.60845 0.119224 5.40386 0.0512838C5.32427 0.0171941 5.20487 0 5.04594 0C4.73896 0 4.33848 0.0567167 3.84421 0.170508C3.34976 0.284121 2.96068 0.403286 2.67656 0.52848C2.10838 0.766989 1.50617 1.46013 0.869746 2.60766C0.290221 3.6756 0.000488281 4.73262 0.000488281 5.77794C0.000488281 6.08451 0.020369 6.38278 0.0601303 6.67281C0.0998917 6.96254 0.170937 7.28929 0.273325 7.65299C0.375535 8.01658 0.457983 8.28667 0.520312 8.46255C0.5827 8.63855 0.699178 8.95384 0.869686 9.40852C1.03996 9.86309 1.14234 10.1414 1.17643 10.2436C1.57411 11.3573 2.04569 12.3515 2.59107 13.2266C3.48838 14.681 4.71293 16.1841 6.26398 17.7353C7.81509 19.2864 9.3179 20.5108 10.7725 21.4085C11.6474 21.9538 12.642 22.4254 13.7555 22.8233C13.8578 22.8573 14.1361 22.9594 14.5905 23.1303C15.045 23.3007 15.3604 23.4171 15.5364 23.4796C15.7125 23.5422 15.9827 23.6247 16.3459 23.7271C16.71 23.8295 17.0364 23.9005 17.3262 23.9406C17.6161 23.9798 17.9144 24.0001 18.221 24.0001C19.2663 24.0001 20.3234 23.7101 21.3915 23.1307C22.5389 22.4945 23.2319 21.8922 23.4705 21.3236C23.596 21.0397 23.7149 20.6506 23.8285 20.1561C23.9424 19.6619 23.999 19.2615 23.999 18.9545C23.9994 18.795 23.9823 18.6759 23.948 18.5956Z" fill="black"/>
</g>
<defs>
<clipPath id="clip0_619_339">
<rect width="24" height="24" fill="white"/>
</clipPath>
</defs>
</svg>
