<svg width="41" height="41" viewBox="0 0 41 41" fill="none" xmlns="http://www.w3.org/2000/svg">
<g clip-path="url(#clip0_607_1065)">
<path d="M36.8297 15.4186H29.5561C29.5568 15.4122 29.5579 15.4059 29.5586 15.3995C30.405 14.6713 31.0815 13.8066 31.5728 12.824C31.7304 12.5089 31.7136 12.1348 31.5284 11.8352C31.3431 11.5355 31.016 11.3531 30.6637 11.3531H29.0948C28.7544 10.3901 28.2576 9.50081 27.6109 8.69788C27.6938 7.58562 27.5607 6.49735 27.2137 5.45645C27.1023 5.12226 26.8258 4.86959 26.483 4.78869C26.14 4.70772 25.7799 4.81017 25.5308 5.05918L24.4191 6.17083C23.5006 5.73175 22.5227 5.45462 21.4991 5.34356C20.7321 4.44001 19.848 3.72482 18.9217 3.26162C18.6067 3.10408 18.2326 3.12088 17.9328 3.30607C17.6332 3.49125 17.4508 3.81839 17.4508 4.17067V5.8073C16.4879 6.14765 15.5985 6.64466 14.7957 7.29128C13.6835 7.20841 12.5951 7.34156 11.5544 7.68855C11.2202 7.79994 10.9675 8.07646 10.8866 8.41925C10.8057 8.76204 10.908 9.12238 11.1571 9.37139L12.2685 10.4829C11.8292 11.402 11.5519 12.3806 11.4411 13.405C10.7601 13.991 10.1893 14.6654 9.7362 15.4186H4.17018C3.60887 15.4186 3.15381 15.8737 3.15381 16.435V20.5005C3.15381 21.0618 3.60887 21.5169 4.17018 21.5169H5.25432V36.8303C5.25432 37.3916 5.70938 37.8467 6.2707 37.8467H10.3362C10.8975 37.8467 11.3526 37.3916 11.3526 36.8303V33.3852L20.5 29.7262L29.6473 33.3852V36.8302C29.6473 37.3915 30.1024 37.8466 30.6637 37.8466H34.7292C35.2905 37.8466 35.7456 37.3915 35.7456 36.8302V21.5168H36.8297C37.391 21.5168 37.8461 21.0618 37.8461 20.5004V16.4349C37.8461 15.8736 37.391 15.4186 36.8297 15.4186V15.4186ZM13.0398 14.7231C13.2716 14.5436 13.4147 14.2728 13.4321 13.9801C13.5 12.8456 13.8237 11.7797 14.3943 10.812C14.6298 10.4128 14.5652 9.90479 14.2375 9.57704L13.9638 9.30336C14.3037 9.29293 14.6479 9.30967 14.9951 9.35364C15.286 9.3905 15.5787 9.29998 15.7979 9.10517C16.6472 8.35075 17.631 7.82501 18.722 7.54246C19.1704 7.42646 19.4836 7.02187 19.4836 6.55868V6.15653C19.7255 6.3945 19.9584 6.65733 20.179 6.94219C20.3585 7.17399 20.6293 7.31696 20.922 7.33444C22.0564 7.4022 23.1223 7.72595 24.0901 8.29661C24.4894 8.532 24.9973 8.4675 25.325 8.13982L25.5988 7.86607C25.6092 8.20588 25.5925 8.55016 25.5485 8.89742C25.5116 9.18831 25.6022 9.48096 25.797 9.70023C26.5514 10.5495 27.0771 11.5333 27.3597 12.6243C27.4758 13.0727 27.8804 13.3859 28.3436 13.3859H28.7272C28.4937 13.6342 28.2377 13.8664 27.9602 14.0813C27.7284 14.2608 27.5854 14.5316 27.5679 14.8243C27.556 15.0235 27.5354 15.2219 27.5072 15.4186H23.3743C23.4871 15.1005 23.5491 14.7585 23.5491 14.4023C23.5491 12.721 22.1813 11.3531 20.5 11.3531C18.8187 11.3531 17.4508 12.721 17.4508 14.4023C17.4508 14.7585 17.5128 15.1005 17.6257 15.4186H12.2733C12.5068 15.1702 12.7624 14.938 13.0398 14.7231ZM21.5163 14.4022C21.5163 14.9626 21.0604 15.4186 20.5 15.4186C19.9395 15.4186 19.4836 14.9626 19.4836 14.4022C19.4836 13.8418 19.9395 13.3858 20.5 13.3858C21.0604 13.3858 21.5163 13.8418 21.5163 14.4022ZM9.31982 35.8138H7.28707V21.5168H9.31982C9.31982 21.5099 9.31989 31.552 9.31982 35.8138ZM11.3526 31.1958V26.0672L17.7633 28.6315L11.3526 31.1958ZM29.6473 31.1958L23.2367 28.6315L29.6473 26.0672V31.1958ZM29.6473 23.8779L20.5 27.5368L11.3526 23.8779V21.5168H29.6473V23.8779ZM33.7129 35.8138H31.6801C31.6801 34.011 31.6801 23.6909 31.6801 21.5168H33.7129V35.8138ZM35.8134 19.4841H5.18656V17.4513H35.8134V19.4841Z" fill="white"/>
</g>
<defs>
<clipPath id="clip0_607_1065">
<rect width="34.6923" height="34.6923" fill="white" transform="translate(3.15381 3.1543)"/>
</clipPath>
</defs>
</svg>
