<svg width="24" height="24" viewBox="0 0 24 24" fill="none" xmlns="http://www.w3.org/2000/svg">
<g clip-path="url(#clip0_619_346)">
<path d="M23.9481 18.5956C23.8802 18.3911 23.4484 18.0898 22.6528 17.6924C22.4372 17.5671 22.1301 17.3969 21.7328 17.181C21.335 16.965 20.974 16.7661 20.6504 16.5842C20.3261 16.4024 20.0223 16.2263 19.7384 16.0561C19.693 16.022 19.551 15.9227 19.3123 15.7576C19.0735 15.5929 18.872 15.4707 18.707 15.391C18.5422 15.3118 18.3802 15.2719 18.2211 15.2719C17.9939 15.2719 17.7101 15.4339 17.3693 15.7576C17.0285 16.0816 16.7159 16.4336 16.432 16.8147C16.148 17.1955 15.8468 17.5475 15.5289 17.8714C15.2106 18.1954 14.949 18.3572 14.7447 18.3572C14.6422 18.3572 14.5143 18.3286 14.361 18.2722C14.2078 18.2154 14.0913 18.1668 14.0113 18.1276C13.932 18.0875 13.796 18.0082 13.6026 17.8885C13.409 17.7692 13.3013 17.7038 13.2786 17.6924C11.7219 16.8286 10.3867 15.8399 9.27301 14.7266C8.15963 13.6127 7.17085 12.2777 6.30727 10.7208C6.29592 10.6981 6.23043 10.5901 6.11121 10.397C5.9918 10.2038 5.91222 10.0676 5.87246 9.98781C5.8327 9.90835 5.7844 9.79181 5.72768 9.63844C5.67096 9.48506 5.64249 9.3573 5.64249 9.25491C5.64249 9.05049 5.80446 8.789 6.12834 8.47079C6.45216 8.15276 6.80452 7.8515 7.18506 7.56762C7.5659 7.28374 7.9179 6.97114 8.24184 6.63036C8.56566 6.2894 8.72758 6.00546 8.72758 5.77824C8.72758 5.61925 8.68781 5.45716 8.60835 5.29244C8.52883 5.12737 8.40668 4.92594 8.24184 4.68719C8.07695 4.44856 7.97754 4.30665 7.94339 4.26098C7.77312 3.97709 7.59718 3.67315 7.41515 3.34927C7.23312 3.02545 7.03443 2.66449 6.81843 2.26682C6.60261 1.86932 6.43228 1.5624 6.30715 1.34651C5.90965 0.551227 5.60858 0.119224 5.40398 0.0512838C5.3244 0.0171941 5.20499 0 5.04607 0C4.73908 0 4.3386 0.0567167 3.84433 0.170508C3.34988 0.284121 2.9608 0.403286 2.67668 0.52848C2.1085 0.766989 1.50629 1.46013 0.869868 2.60765C0.290343 3.6756 0.000610352 4.73262 0.000610352 5.77794C0.000610352 6.08451 0.020491 6.38278 0.0602524 6.67281C0.100014 6.96254 0.171059 7.28929 0.273447 7.65299C0.375657 8.01658 0.458105 8.28667 0.520434 8.46255C0.582822 8.63855 0.6993 8.95384 0.869808 9.40852C1.04008 9.86309 1.14247 10.1414 1.17656 10.2436C1.57423 11.3573 2.04581 12.3515 2.59119 13.2266C3.48851 14.681 4.71305 16.1841 6.2641 17.7353C7.81521 19.2864 9.31803 20.5108 10.7726 21.4085C11.6475 21.9538 12.6421 22.4254 13.7556 22.8233C13.8579 22.8572 14.1362 22.9594 14.5906 23.1303C15.0452 23.3007 15.3606 23.4171 15.5366 23.4796C15.7126 23.5422 15.9828 23.6247 16.3461 23.7271C16.7101 23.8295 17.0366 23.9005 17.3263 23.9406C17.6162 23.9798 17.9145 24.0001 18.2212 24.0001C19.2664 24.0001 20.3235 23.7101 21.3916 23.1307C22.539 22.4945 23.232 21.8922 23.4706 21.3236C23.5961 21.0397 23.715 20.6506 23.8286 20.1561C23.9426 19.6619 23.9992 19.2615 23.9992 18.9545C23.9995 18.795 23.9824 18.6759 23.9481 18.5956Z" fill="white"/>
</g>
<defs>
<clipPath id="clip0_619_346">
<rect width="24" height="24" fill="white"/>
</clipPath>
</defs>
</svg>
