<svg width="35" height="35" viewBox="0 0 35 35" fill="none" xmlns="http://www.w3.org/2000/svg">
<path d="M34.5484 0.451973C34.3352 0.238597 34.0378 0.130825 33.7376 0.158598C33.6123 0.169978 30.6208 0.45448 26.5182 1.83154C13.1663 5.94367 4.32971 18.8903 0.22062 28.2563C-0.0380269 28.8747 0.484552 29.7026 1.26673 29.6342L5.80532 29.1926L5.36383 33.7308C5.31546 34.3832 5.9488 35.0703 6.74181 34.7769C23.0466 27.3476 32.9919 15.9764 34.8419 1.26274C34.8693 0.962316 34.7618 0.665214 34.5484 0.451973ZM21.4105 22.7886C19.6089 24.4282 17.8329 25.8376 16.1913 27.0249V9.72159C17.9122 8.31127 19.6957 7.16818 21.4105 6.24531V22.7886ZM11.4935 30.0996C9.88013 31.0475 8.51827 31.7394 7.55508 32.196L7.94773 28.1602C8.00599 27.6351 7.52019 26.9707 6.83794 27.0505L2.80337 27.4429C4.16638 24.5511 7.8373 17.818 14.159 11.5519V28.4327C13.1848 29.0786 12.286 29.634 11.4935 30.0996ZM31.2231 7.89129C30.0298 11.428 27.7122 16.534 23.4428 20.8447V5.23296C26.2239 3.88977 30.4729 2.68579 32.6337 2.36654C32.4266 3.58 32.0109 5.55662 31.2231 7.89129Z" fill="white"/>
</svg>
