<svg width="41" height="41" viewBox="0 0 41 41" fill="none" xmlns="http://www.w3.org/2000/svg">
<path d="M29.3552 23.9783C26.9439 23.9783 24.9823 25.9399 24.9823 28.3513C24.9823 30.7626 26.9439 32.7243 29.3552 32.7243C31.767 32.7243 33.7282 30.7626 33.7282 28.3513C33.7282 25.9399 31.7666 23.9783 29.3552 23.9783ZM29.3552 30.5378C28.1494 30.5378 27.1687 29.5571 27.1687 28.3513C27.1687 27.1454 28.1494 26.1648 29.3552 26.1648C30.5611 26.1648 31.5417 27.1454 31.5417 28.3513C31.5417 29.5572 30.5611 30.5378 29.3552 30.5378Z" fill="white"/>
<path d="M14.4142 23.9783C12.0029 23.9783 10.0412 25.9399 10.0412 28.3513C10.0412 30.7626 12.0029 32.7243 14.4142 32.7243C16.8256 32.7243 18.7872 30.7626 18.7872 28.3513C18.7872 25.9399 16.8256 23.9783 14.4142 23.9783ZM14.4142 30.5378C13.2084 30.5378 12.2277 29.5571 12.2277 28.3513C12.2277 27.1454 13.2084 26.1648 14.4142 26.1648C15.6197 26.1648 16.6007 27.1454 16.6007 28.3513C16.6007 29.5572 15.6201 30.5378 14.4142 30.5378Z" fill="white"/>
<path d="M32.3001 11.4614C32.1142 11.0922 31.7363 10.8593 31.3231 10.8593H25.5653V13.0458H30.6489L33.6258 18.9668L35.5798 17.9843L32.3001 11.4614Z" fill="white"/>
<path d="M26.0755 27.2945H17.8033V29.481H26.0755V27.2945Z" fill="white"/>
<path d="M11.1345 27.2945H7.3446C6.74074 27.2945 6.25139 27.7839 6.25139 28.3877C6.25139 28.9916 6.74081 29.4809 7.3446 29.4809H11.1345C11.7384 29.4809 12.2277 28.9915 12.2277 28.3877C12.2277 27.7838 11.7383 27.2945 11.1345 27.2945Z" fill="white"/>
<path d="M37.6166 20.6111L35.4662 17.8415C35.2596 17.5748 34.9407 17.4188 34.6029 17.4188H26.6586V9.76607C26.6586 9.1622 26.1692 8.67285 25.5654 8.67285H7.3446C6.74074 8.67285 6.25139 9.16227 6.25139 9.76607C6.25139 10.3699 6.74081 10.8593 7.3446 10.8593H24.4721V18.512C24.4721 19.1158 24.9615 19.6052 25.5653 19.6052H34.0675L35.6596 21.6561V27.2944H32.635C32.0311 27.2944 31.5417 27.7838 31.5417 28.3876C31.5417 28.9914 32.0312 29.4808 32.635 29.4808H36.7528C37.3567 29.4808 37.8461 28.9914 37.8461 28.3876V21.2816C37.8461 21.0389 37.7652 20.8028 37.6166 20.6111Z" fill="white"/>
<path d="M11.0616 21.7554H6.03266C5.4288 21.7554 4.93945 22.2448 4.93945 22.8486C4.93945 23.4525 5.42887 23.9418 6.03266 23.9418H11.0616C11.6654 23.9418 12.1548 23.4524 12.1548 22.8486C12.1548 22.2448 11.6654 21.7554 11.0616 21.7554Z" fill="white"/>
<path d="M13.5761 17.4552H4.24702C3.64323 17.4552 3.15381 17.9446 3.15381 18.5485C3.15381 19.1524 3.64323 19.6417 4.24702 19.6417H13.5761C14.1799 19.6417 14.6693 19.1523 14.6693 18.5485C14.6693 17.9447 14.1799 17.4552 13.5761 17.4552Z" fill="white"/>
<path d="M15.3617 13.1551H6.03266C5.4288 13.1551 4.93945 13.6446 4.93945 14.2484C4.93945 14.8522 5.42887 15.3416 6.03266 15.3416H15.3617C15.9656 15.3416 16.4549 14.8522 16.4549 14.2484C16.455 13.6446 15.9656 13.1551 15.3617 13.1551Z" fill="white"/>
</svg>
