<svg width="38" height="38" viewBox="0 0 38 38" fill="none" xmlns="http://www.w3.org/2000/svg">
<path d="M18.2132 0.326006L11.5439 6.9953C11.1091 7.43 11.1091 8.13493 11.5439 8.56971L14.693 11.7188C14.9565 11.9823 15.3191 12.0863 15.6606 12.0302V15.6601H12.0307C12.088 15.3123 11.9769 14.9501 11.7194 14.6926L8.57027 11.5434C8.13587 11.109 7.43056 11.1087 6.99586 11.5434L0.326568 18.2127C-0.108205 18.6474 -0.108205 19.3524 0.326568 19.7871L6.99586 26.4564C7.43027 26.8909 8.13557 26.8912 8.57027 26.4564L11.7194 23.3073C11.9771 23.0496 12.0879 22.6873 12.0307 22.3397H15.6605V25.9696C15.3191 25.9134 14.9563 26.0176 14.6929 26.281L11.5438 29.4301C11.1091 29.8648 11.1091 30.5697 11.5438 31.0045L18.2131 37.6738C18.6479 38.1086 19.3528 38.1086 19.7875 37.6738L26.4568 31.0045C26.8912 30.57 26.8916 29.8648 26.4568 29.4301L23.3077 26.281C23.0443 26.0176 22.6816 25.9135 22.3402 25.9696V22.3398H25.9701C25.9128 22.6877 26.0239 23.0499 26.2815 23.3073L29.4306 26.4565C29.865 26.891 30.5703 26.8913 31.005 26.4565L37.6743 19.7872C38.109 19.3525 38.109 18.6476 37.6743 18.2128L31.005 11.5435C30.5706 11.109 29.8653 11.1087 29.4306 11.5435L26.2815 14.6927C26.0237 14.9504 25.9129 15.3126 25.9701 15.6602H22.3402V12.0304C22.6816 12.0863 23.0443 11.9824 23.3077 11.719L26.4568 8.56985C26.8914 8.13538 26.8915 7.43022 26.4568 6.99545L19.7875 0.326154C19.3528 -0.108693 18.6479 -0.108693 18.2132 0.326006V0.326006ZM22.5206 9.35724L22.0142 8.85085C21.3157 8.15223 20.1137 8.64682 20.1137 9.63801V16.7734C20.1137 17.3882 20.6121 17.8867 21.2269 17.8867H28.3623C29.3507 17.8867 29.8502 16.6869 29.1495 15.9862L28.6431 15.4798L30.2178 13.9051L35.3127 19L30.2179 24.0949L28.6432 22.5202L29.1496 22.0138C29.8484 21.3148 29.3532 20.1132 28.3623 20.1132H21.2269C20.6121 20.1132 20.1137 20.6117 20.1137 21.2265V28.3619C20.1137 29.3536 21.3161 29.8473 22.0141 29.1491L22.5205 28.6427L24.0952 30.2174L19.0004 35.3123L13.9056 30.2173L15.4802 28.6426L15.9867 29.149C16.6853 29.8479 17.8871 29.3527 17.8871 28.3618V21.2265C17.8871 20.6117 17.3886 20.1132 16.7738 20.1132H9.63842C8.65005 20.1132 8.15056 21.3131 8.85126 22.0137L9.35765 22.5201L7.78295 24.0949L2.68806 19L7.78288 13.905L9.35758 15.4798L8.85118 15.9862C8.15234 16.6851 8.64753 17.8867 9.63842 17.8867H16.7738C17.3886 17.8867 17.8871 17.3882 17.8871 16.7734V9.63801C17.8871 8.65009 16.6874 8.15007 15.9867 8.85085L15.4802 9.35724L13.9056 7.78254L19.0004 2.68757L24.0952 7.78254L22.5206 9.35724Z" fill="white"/>
</svg>
