<!-- socials -->
<svg width="20" height="20"  xmlns="http://www.w3.org/2000/svg">
  <symbol viewBox="0 0 20 20" id="vk">
    <g clip-path="url(#clip0_607_664)">
      <path d="M19.891 14.6049C19.891 14.5504 19.8365 14.4959 19.8365 14.4959C19.5095 13.8965 18.8011 13.079 17.8202 12.2071C17.3842 11.7711 17.1117 11.4986 17.0027 11.3351C16.7847 11.0627 16.7302 10.7902 16.8392 10.5177C16.9482 10.2997 17.2207 9.86376 17.7657 9.15531C18.0381 8.77384 18.2561 8.50136 18.4196 8.28338C19.6185 6.703 20.1635 5.66757 20 5.23161L19.9455 5.12261C19.891 4.95913 19.782 4.90463 19.6185 4.85013C19.455 4.79564 19.2371 4.79564 18.9646 4.85013H15.9673C15.9128 4.85013 15.8583 4.85013 15.7493 4.85013C15.6403 4.85013 15.6403 4.90463 15.6403 4.90463H15.5858L15.5313 4.95913C15.4768 4.95913 15.4768 5.01362 15.4223 5.06812C15.3678 5.12261 15.3678 5.17711 15.3134 5.23161C14.9864 6.04904 14.6049 6.86648 14.2234 7.57493C13.951 8.0109 13.733 8.39237 13.515 8.71934C13.297 9.04632 13.1335 9.2643 12.97 9.42779C12.8065 9.59128 12.6975 9.70027 12.5886 9.80926C12.4796 9.91825 12.3706 9.91825 12.3161 9.91825C12.2616 9.91825 12.2071 9.86376 12.1526 9.86376C12.0436 9.80926 11.9891 9.70027 11.9346 9.59128C11.8801 9.48229 11.8256 9.3733 11.8256 9.20981C11.8256 9.04632 11.7711 8.88283 11.7711 8.77384C11.7711 8.66485 11.7711 8.50136 11.7711 8.28338C11.7711 8.06539 11.7711 7.90191 11.7711 7.84741C11.7711 7.57493 11.7711 7.30245 11.7711 6.97548C11.7711 6.6485 11.7711 6.43052 11.7711 6.26703C11.7711 6.10354 11.7711 5.88556 11.7711 5.66757C11.7711 5.44959 11.7711 5.2861 11.7166 5.17711C11.7166 5.06812 11.6621 4.95913 11.6076 4.85013C11.5531 4.74114 11.4986 4.63215 11.3896 4.57766C11.2807 4.52316 11.1717 4.46866 11.0627 4.41417C10.6812 4.30518 10.2452 4.30518 9.64578 4.30518C8.33788 4.30518 7.52044 4.35967 7.13896 4.57766C6.97548 4.63215 6.86648 4.74114 6.75749 4.90463C6.6485 5.06812 6.59401 5.12261 6.703 5.17711C7.13896 5.23161 7.41144 5.39509 7.57493 5.61308L7.62943 5.72207C7.68392 5.83106 7.73842 5.99455 7.79292 6.21253C7.84741 6.43052 7.84741 6.703 7.90191 6.97548C7.9564 7.46594 7.9564 7.90191 7.90191 8.28338C7.84741 8.66485 7.84741 8.93733 7.79292 9.10082C7.73842 9.3188 7.73842 9.48229 7.62943 9.59128C7.57493 9.70027 7.52044 9.80926 7.52044 9.80926C7.52044 9.86376 7.46594 9.86376 7.46594 9.86376C7.35695 9.91825 7.30245 9.91825 7.19346 9.91825C7.08447 9.91825 6.97548 9.86376 6.86649 9.75477C6.703 9.64577 6.59401 9.53678 6.43052 9.3733C6.26703 9.20981 6.10354 8.99182 5.94005 8.66485C5.77657 8.33787 5.55858 8.0109 5.3406 7.57493L5.17711 7.24795C5.06812 7.02997 4.90463 6.75749 4.74114 6.37602C4.57766 5.99455 4.41417 5.66757 4.25068 5.2861C4.19619 5.17711 4.08719 5.06812 3.9782 4.95913H3.92371C3.86921 4.90463 3.81471 4.90463 3.76022 4.85013C3.70572 4.85013 3.59673 4.79564 3.54223 4.79564H0.708447C0.381471 4.79564 0.163488 4.90463 0.0544959 5.01362V5.06812C0 5.12261 0 5.17711 0 5.23161C0 5.2861 0 5.39509 0.0544959 5.50409C0.490463 6.48501 0.92643 7.41144 1.41689 8.33787C1.90736 9.2643 2.34332 9.97275 2.6703 10.5177C3.05177 11.0627 3.37875 11.6076 3.76022 12.0981C4.14169 12.5886 4.35967 12.9155 4.52316 13.0245C4.63215 13.188 4.74114 13.2425 4.79564 13.3515L5.06812 13.624C5.23161 13.7875 5.50409 14.0054 5.77657 14.2234C6.10354 14.4414 6.43052 14.6594 6.86649 14.9319C7.24796 15.1499 7.73842 15.3678 8.22888 15.4768C8.77384 15.6403 9.2643 15.6948 9.75477 15.6403H10.9537C11.1717 15.6403 11.3896 15.5313 11.4986 15.4223L11.5531 15.3678C11.6076 15.3133 11.6076 15.2589 11.6076 15.1499C11.6076 15.0409 11.6621 14.9864 11.6621 14.8774C11.6621 14.6049 11.6621 14.3324 11.7166 14.0599C11.7711 13.842 11.8256 13.624 11.8801 13.515C11.9346 13.406 12.0436 13.297 12.0981 13.188C12.2071 13.079 12.2616 13.079 12.2616 13.0245C12.3161 13.0245 12.3161 12.97 12.3706 12.97C12.5341 12.9155 12.752 12.97 12.97 13.1335C13.188 13.297 13.406 13.515 13.624 13.733C13.842 13.951 14.0599 14.2234 14.3324 14.5504C14.6049 14.8229 14.8774 15.0954 15.0409 15.2044L15.2589 15.3133C15.4223 15.4223 15.5858 15.4768 15.8038 15.5313C16.0218 15.5858 16.2398 15.6403 16.4033 15.5858L19.0736 15.5313C19.346 15.5313 19.564 15.4768 19.673 15.4223C19.8365 15.3133 19.891 15.2589 19.9455 15.1499C20 15.0409 20 14.9319 19.9455 14.7684C19.9455 14.7684 19.9455 14.6594 19.891 14.6049Z"/>
    </g>
    <defs>
      <clipPath id="clip0_607_664">
        <rect width="20" height="20"/>
      </clipPath>
    </defs>
  </symbol>  

  <symbol viewBox="0 0 20 20" id="fb">
    <path d="M20 18.9101C20 19.5095 19.5095 20 18.9101 20H13.7875V12.2616H16.4033L16.7847 9.26431H13.7875V7.35695C13.7875 6.48501 14.0054 5.88556 15.2589 5.88556H16.8392V3.16076C16.5668 3.10627 15.6403 3.05177 14.4959 3.05177C12.2071 3.05177 10.6267 4.46866 10.6267 7.02997V9.26431H8.0109V12.2616H10.6267V20H1.08992C0.490463 20 0 19.5095 0 18.9101V1.08992C0 0.490463 0.490463 0 1.08992 0H18.9101C19.5095 0 20 0.490463 20 1.08992V18.9101Z"/>
  </symbol> 
  
  <symbol viewBox="0 0 20 20" id="in">
    <path d="M17.6022 0H2.39782C1.08992 0 0 1.03542 0 2.34332V17.6567C0 18.9646 1.08992 20 2.39782 20H17.6022C18.9101 20 20 18.9646 20 17.6567V2.34332C20 1.03542 18.9101 0 17.6022 0ZM14.3869 3.10627C14.3869 2.77929 14.6594 2.50681 14.9864 2.50681H16.8937C17.2207 2.50681 17.4932 2.77929 17.4932 3.10627V4.95913C17.4932 5.2861 17.2207 5.55858 16.8937 5.55858H15.0409C14.7139 5.55858 14.4414 5.2861 14.4414 4.95913L14.3869 3.10627ZM10.0272 6.15804C12.1526 6.15804 13.8965 7.84741 13.8965 9.97275C13.8965 12.0981 12.1526 13.7875 10.0272 13.7875C7.90191 13.7875 6.15804 12.0981 6.15804 9.97275C6.15804 7.90191 7.90191 6.15804 10.0272 6.15804ZM18.0926 17.4932C18.0926 17.8202 17.8202 18.0926 17.4932 18.0926H2.50681C2.17984 18.0926 1.90736 17.8202 1.90736 17.4932V8.11989H4.35967C4.0327 8.61035 3.92371 9.48229 3.92371 10.0272C3.92371 13.3515 6.6485 16.0763 10.0272 16.0763C13.406 16.0763 16.1308 13.3515 16.1308 10.0272C16.1308 9.48229 16.0763 8.61035 15.6403 8.11989H18.1471L18.0926 17.4932Z"/>
  </symbol>

  <symbol viewBox="0 0 20 20" id="tv">
    <g clip-path="url(#clip0_607_661)">
      <path d="M19.455 2.01613C18.6376 2.5066 17.7657 2.83357 16.8392 3.05155C16.0763 2.23412 15.0409 1.74365 13.842 1.74365C11.5531 1.74365 9.75477 3.65101 9.75477 5.93984C9.75477 6.26681 9.80926 6.59379 9.86376 6.92076C6.43052 6.70278 3.43324 5.01341 1.41689 2.4521C1.08992 3.05155 0.871935 3.8145 0.871935 4.57744C0.871935 6.04883 1.58038 7.30224 2.7248 8.06518C2.07084 8.06518 1.41689 7.84719 0.871935 7.52022V7.62921C0.871935 9.64556 2.28883 11.3894 4.14169 11.7709C3.81471 11.8799 3.43324 11.9344 3.05177 11.9344C2.77929 11.9344 2.50681 11.9344 2.28883 11.8799C2.83379 13.5693 4.30518 14.7682 6.10354 14.8227C4.68665 15.9671 2.94278 16.621 0.980926 16.621C0.653951 16.621 0.326975 16.621 0 16.5665C1.79837 17.7655 3.9782 18.4739 6.26703 18.4739C13.842 18.4739 17.9292 12.0434 17.9292 6.4848C17.9292 6.32131 17.9292 6.10333 17.9292 5.93984C18.7466 5.34038 19.455 4.63194 20 3.76C19.2916 4.08698 18.4741 4.30496 17.6567 4.41395C18.4741 3.8145 19.1281 2.99706 19.455 2.01613Z"/>
    </g>
    <defs>
      <clipPath id="clip0_607_661">
        <rect width="20" height="20"/>
      </clipPath>
    </defs>
  </symbol>

<!-- logo -->
  <symbol viewBox="0 0 55 40" id="logo">
    <path d="M12.5753 18.552C11.5673 18.552 10.6793 18.376 9.91133 18.024C9.14335 17.672 8.55135 17.184 8.13535 16.56C7.71935 15.92 7.51135 15.184 7.51135 14.352C7.51135 13.648 7.65535 13.008 7.94335 12.432C8.24735 11.856 8.64734 11.4 9.14334 11.064C9.65534 10.728 10.2153 10.56 10.8233 10.56C11.3833 10.56 11.8553 10.704 12.2393 10.992C12.6233 11.264 12.8633 11.648 12.9593 12.144C12.1273 12.144 11.4633 12.368 10.9673 12.816C10.4713 13.248 10.2233 13.84 10.2233 14.592C10.2233 15.28 10.4313 15.832 10.8473 16.248C11.2633 16.664 11.8153 16.872 12.5033 16.872C13.3513 16.872 14.0473 16.592 14.5913 16.032C15.1513 15.456 15.4313 14.736 15.4313 13.872C15.4313 13.12 15.2233 12.408 14.8073 11.736C14.3913 11.064 13.7673 10.248 12.9353 9.288C12.0713 8.296 11.4153 7.448 10.9673 6.744C10.5353 6.024 10.3193 5.24 10.3193 4.392C10.3193 3.56 10.5513 2.816 11.0153 2.16C11.4793 1.488 12.1193 0.960001 12.9353 0.576001C13.7513 0.192001 14.6713 0 15.6953 0C16.9913 0 18.0233 0.304001 18.7913 0.912001C19.5753 1.52 19.9673 2.336 19.9673 3.36C19.9673 4.032 19.7993 4.576 19.4633 4.992C19.1273 5.408 18.6873 5.616 18.1433 5.616C17.5353 5.616 17.0473 5.368 16.6793 4.872C16.9833 4.648 17.2233 4.352 17.3993 3.984C17.5753 3.616 17.6633 3.232 17.6633 2.832C17.6633 2.32 17.5113 1.912 17.2073 1.608C16.9033 1.304 16.4873 1.152 15.9593 1.152C15.3193 1.152 14.7913 1.384 14.3753 1.848C13.9753 2.296 13.7753 2.872 13.7753 3.576C13.7753 4.216 13.9593 4.816 14.3273 5.376C14.6953 5.92 15.2713 6.624 16.0553 7.488C16.6953 8.176 17.2073 8.768 17.5913 9.264C17.9913 9.76 18.3273 10.336 18.5993 10.992C18.8873 11.632 19.0313 12.328 19.0313 13.08C19.0313 14.104 18.7433 15.032 18.1673 15.864C17.6073 16.696 16.8313 17.352 15.8393 17.832C14.8633 18.312 13.7753 18.552 12.5753 18.552ZM22.7588 18.264C21.9908 18.264 21.3668 18.024 20.8868 17.544C20.4228 17.064 20.1908 16.344 20.1908 15.384C20.1908 14.984 20.2548 14.464 20.3828 13.824L22.0148 6.12H25.4708L23.7428 14.28C23.6948 14.52 23.6708 14.744 23.6708 14.952C23.6708 15.608 23.9108 15.936 24.3908 15.936C24.8388 15.936 25.2228 15.752 25.5428 15.384C25.8628 15 26.1188 14.48 26.3108 13.824L27.9428 6.12H31.3988L29.6708 14.28C29.6068 14.52 29.5748 14.776 29.5748 15.048C29.5748 15.368 29.6468 15.6 29.7908 15.744C29.9508 15.872 30.2068 15.936 30.5588 15.936C31.0068 15.936 31.3908 15.744 31.7108 15.36C32.0468 14.976 32.3108 14.464 32.5028 13.824H33.5108C32.9188 15.552 32.1828 16.728 31.3028 17.352C30.4388 17.96 29.5668 18.264 28.6868 18.264C27.9988 18.264 27.4468 18.072 27.0308 17.688C26.6308 17.304 26.3908 16.736 26.3108 15.984C25.7668 16.864 25.1908 17.464 24.5828 17.784C23.9908 18.104 23.3828 18.264 22.7588 18.264ZM34.132 6.12H37.588L37.276 7.608C37.82 7.128 38.308 6.76 38.74 6.504C39.188 6.248 39.668 6.12 40.18 6.12C40.692 6.12 41.092 6.296 41.38 6.648C41.684 7 41.836 7.424 41.836 7.92C41.836 8.384 41.684 8.792 41.38 9.144C41.076 9.496 40.652 9.672 40.108 9.672C39.756 9.672 39.516 9.592 39.388 9.432C39.276 9.256 39.188 9.008 39.124 8.688C39.076 8.48 39.028 8.328 38.98 8.232C38.932 8.136 38.844 8.088 38.716 8.088C38.38 8.088 38.092 8.16 37.852 8.304C37.628 8.432 37.332 8.664 36.964 9L35.044 18.12H31.588L34.132 6.12ZM39.3634 24.12C38.6114 24.12 37.9554 23.872 37.3954 23.376C36.8194 22.896 36.5314 22.28 36.5314 21.528C36.5314 20.84 36.7074 20.272 37.0594 19.824C37.4114 19.376 37.8674 19.016 38.4274 18.744C38.9874 18.488 39.7314 18.216 40.6594 17.928L43.5634 4.224C43.8834 2.688 44.4434 1.624 45.2434 1.032C46.0594 0.440001 46.9554 0.144001 47.9314 0.144001C48.6834 0.144001 49.3394 0.392001 49.8994 0.888001C50.4754 1.368 50.7634 1.984 50.7634 2.736C50.7634 3.104 50.7394 3.432 50.6914 3.72H49.5634C49.5954 3.368 49.6114 3.152 49.6114 3.072C49.6114 2.816 49.5234 2.616 49.3474 2.472C49.1714 2.328 48.9554 2.256 48.6994 2.256C48.3634 2.256 48.0354 2.408 47.7154 2.712C47.3954 3 47.1634 3.504 47.0194 4.224L46.6114 6.12H48.3634L48.1954 7.08H46.4194L43.6594 20.04C43.3394 21.592 42.7874 22.656 42.0034 23.232C41.2194 23.824 40.3394 24.12 39.3634 24.12ZM38.8114 21.984C39.4514 21.984 39.9074 21.36 40.1794 20.112L40.4914 18.72C39.6434 19.008 38.9954 19.336 38.5474 19.704C38.0834 20.088 37.8514 20.584 37.8514 21.192C37.8514 21.384 37.9474 21.56 38.1394 21.72C38.3314 21.896 38.5554 21.984 38.8114 21.984ZM3.36 39.264C2.272 39.264 1.44 39 0.864005 38.472C0.288 37.928 0 37.168 0 36.192C0 35.712 0.056 35.256 0.168 34.824L2.73601 22.8L6.28801 22.32L5.13601 27.72C5.58401 27.448 5.95201 27.272 6.24001 27.192C6.52801 27.096 6.81601 27.048 7.10401 27.048C8.99201 27.048 9.93603 28.416 9.93603 31.152C9.93603 32.256 9.72 33.44 9.288 34.704C8.872 35.952 8.16801 37.024 7.17601 37.92C6.20001 38.816 4.928 39.264 3.36 39.264ZM4.70401 36.936C5.20001 36.936 5.66401 36.632 6.09601 36.024C6.52801 35.4 6.87201 34.632 7.12801 33.72C7.38401 32.792 7.51201 31.904 7.51201 31.056C7.51201 30.416 7.40001 29.872 7.17601 29.424C6.95201 28.976 6.64001 28.752 6.24001 28.752C6.00001 28.752 5.72801 28.792 5.42401 28.872C5.13601 28.936 4.93601 29.04 4.82401 29.184L3.504 35.28C3.456 35.472 3.432 35.656 3.432 35.832C3.432 36.568 3.85601 36.936 4.70401 36.936ZM14.336 39.216C13.152 39.216 12.216 38.912 11.528 38.304C10.84 37.696 10.496 36.736 10.496 35.424C10.496 34.336 10.72 33.128 11.168 31.8C11.616 30.472 12.336 29.328 13.328 28.368C14.32 27.392 15.568 26.904 17.072 26.904C19.12 26.904 20.144 28.184 20.144 30.744V30.768C20.192 30.784 20.28 30.792 20.408 30.792C20.936 30.792 21.544 30.656 22.232 30.384C22.92 30.096 23.544 29.752 24.104 29.352L24.32 30C23.856 30.496 23.248 30.92 22.496 31.272C21.76 31.608 20.952 31.848 20.072 31.992C19.944 33.448 19.616 34.72 19.088 35.808C18.56 36.896 17.88 37.736 17.048 38.328C16.216 38.92 15.312 39.216 14.336 39.216ZM15.296 37.056C15.68 37.056 16.064 36.84 16.448 36.408C16.832 35.96 17.168 35.36 17.456 34.608C17.744 33.84 17.952 32.992 18.08 32.064C17.648 31.968 17.432 31.632 17.432 31.056C17.432 30.4 17.68 29.968 18.176 29.76C18.144 29.232 18.064 28.872 17.936 28.68C17.808 28.472 17.584 28.368 17.264 28.368C16.736 28.368 16.224 28.752 15.728 29.52C15.232 30.288 14.832 31.208 14.528 32.28C14.224 33.352 14.072 34.296 14.072 35.112C14.072 35.88 14.16 36.4 14.336 36.672C14.512 36.928 14.832 37.056 15.296 37.056ZM24.2589 39.264C23.3469 39.264 22.5869 38.952 21.9789 38.328C21.3709 37.704 21.0669 36.728 21.0669 35.4C21.0669 34.216 21.2989 32.976 21.7629 31.68C22.2429 30.368 22.9469 29.264 23.8749 28.368C24.8189 27.456 25.9389 27 27.2349 27C27.8909 27 28.3789 27.112 28.6989 27.336C29.0189 27.56 29.1789 27.856 29.1789 28.224V28.392L29.4429 27.12H32.8989L31.1709 35.28C31.1069 35.52 31.0749 35.776 31.0749 36.048C31.0749 36.736 31.4029 37.08 32.0589 37.08C32.5069 37.08 32.8909 36.872 33.2109 36.456C33.5469 36.04 33.8109 35.496 34.0029 34.824H35.0109C34.4189 36.552 33.6829 37.728 32.8029 38.352C31.9389 38.96 31.0669 39.264 30.1869 39.264C29.5149 39.264 28.9709 39.08 28.5549 38.712C28.1549 38.328 27.9149 37.776 27.8349 37.056C27.3709 37.712 26.8509 38.248 26.2749 38.664C25.7149 39.064 25.0429 39.264 24.2589 39.264ZM25.8189 36.936C26.2189 36.936 26.6109 36.752 26.9949 36.384C27.3949 36 27.6669 35.48 27.8109 34.824L28.9629 29.4C28.9629 29.192 28.8829 28.992 28.7229 28.8C28.5629 28.592 28.3149 28.488 27.9789 28.488C27.3389 28.488 26.7629 28.864 26.2509 29.616C25.7389 30.352 25.3389 31.248 25.0509 32.304C24.7629 33.344 24.6189 34.264 24.6189 35.064C24.6189 35.864 24.7309 36.376 24.9549 36.6C25.1949 36.824 25.4829 36.936 25.8189 36.936ZM35.6437 27.12H39.0997L38.7877 28.608C39.3317 28.128 39.8197 27.76 40.2517 27.504C40.6997 27.248 41.1797 27.12 41.6917 27.12C42.2037 27.12 42.6037 27.296 42.8917 27.648C43.1957 28 43.3477 28.424 43.3477 28.92C43.3477 29.384 43.1957 29.792 42.8917 30.144C42.5877 30.496 42.1637 30.672 41.6197 30.672C41.2677 30.672 41.0277 30.592 40.8997 30.432C40.7877 30.256 40.6997 30.008 40.6357 29.688C40.5877 29.48 40.5397 29.328 40.4917 29.232C40.4437 29.136 40.3557 29.088 40.2277 29.088C39.8917 29.088 39.6037 29.16 39.3637 29.304C39.1397 29.432 38.8437 29.664 38.4757 30L36.5557 39.12H33.0997L35.6437 27.12ZM45.9152 39.264C45.0032 39.264 44.2432 38.952 43.6352 38.328C43.0272 37.704 42.7232 36.728 42.7232 35.4C42.7232 34.216 42.9552 32.976 43.4192 31.68C43.8992 30.368 44.6032 29.264 45.5312 28.368C46.4752 27.456 47.5952 27 48.8912 27C49.5472 27 50.0352 27.112 50.3552 27.336C50.6752 27.56 50.8352 27.856 50.8352 28.224V28.32L52.0112 22.8L55.5632 22.32L52.8032 35.28C52.7392 35.52 52.7072 35.752 52.7072 35.976C52.7072 36.616 53.0352 36.936 53.6912 36.936C53.9792 36.936 54.2352 36.888 54.4592 36.792C54.3952 37.592 54.1072 38.208 53.5952 38.64C53.0992 39.056 52.5072 39.264 51.8192 39.264C51.1792 39.264 50.6352 39.104 50.1872 38.784C49.7552 38.448 49.4672 37.944 49.3232 37.272C48.3632 38.6 47.2272 39.264 45.9152 39.264ZM47.4752 36.936C47.8272 36.936 48.1792 36.784 48.5312 36.48C48.8992 36.176 49.1712 35.752 49.3472 35.208L49.4432 34.824L50.6192 29.328C50.4752 28.768 50.1472 28.488 49.6352 28.488C48.9952 28.488 48.4192 28.864 47.9072 29.616C47.3952 30.352 46.9952 31.248 46.7072 32.304C46.4192 33.344 46.2752 34.264 46.2752 35.064C46.2752 35.864 46.3872 36.376 46.6112 36.6C46.8512 36.824 47.1392 36.936 47.4752 36.936Z"/>
  </symbol>

<!-- phone -->
  <symbol viewBox="0 0 24 24" id="phone-number__icon-elem">
    <g clip-path="url(#clip0_619_339)">
      <path d="M23.948 18.5956C23.8801 18.3911 23.4482 18.0898 22.6527 17.6924C22.4371 17.5671 22.13 17.3969 21.7326 17.181C21.3349 16.965 20.9739 16.7661 20.6503 16.5842C20.326 16.4024 20.0221 16.2263 19.7382 16.0561C19.6929 16.022 19.5508 15.9227 19.3122 15.7576C19.0734 15.5929 18.8719 15.4707 18.7068 15.391C18.5421 15.3118 18.3801 15.2719 18.221 15.2719C17.9938 15.2719 17.7099 15.4339 17.3692 15.7576C17.0284 16.0816 16.7158 16.4336 16.4318 16.8147C16.1478 17.1955 15.8466 17.5475 15.5288 17.8714C15.2105 18.1954 14.9489 18.3572 14.7446 18.3572C14.642 18.3572 14.5142 18.3286 14.3609 18.2722C14.2077 18.2154 14.0912 18.1668 14.0112 18.1276C13.9319 18.0875 13.7958 18.0082 13.6025 17.8885C13.4088 17.7692 13.3011 17.7038 13.2785 17.6924C11.7217 16.8286 10.3866 15.8399 9.27289 14.7266C8.15951 13.6127 7.17073 12.2777 6.30714 10.7208C6.2958 10.6981 6.23031 10.5901 6.11108 10.397C5.99168 10.2038 5.9121 10.0676 5.87234 9.98781C5.83257 9.90835 5.78428 9.79181 5.72756 9.63844C5.67084 9.48506 5.64236 9.3573 5.64236 9.25491C5.64236 9.05049 5.80434 8.789 6.12822 8.47079C6.45204 8.15276 6.8044 7.8515 7.18494 7.56762C7.56578 7.28374 7.91778 6.97114 8.24172 6.63036C8.56554 6.2894 8.72745 6.00546 8.72745 5.77824C8.72745 5.61925 8.68769 5.45716 8.60823 5.29244C8.52871 5.12737 8.40656 4.92594 8.24172 4.68719C8.07682 4.44856 7.97742 4.30665 7.94327 4.26098C7.773 3.97709 7.59706 3.67315 7.41503 3.34927C7.233 3.02545 7.03431 2.66449 6.81831 2.26682C6.60249 1.86932 6.43216 1.5624 6.30702 1.34651C5.90953 0.551227 5.60845 0.119224 5.40386 0.0512838C5.32427 0.0171941 5.20487 0 5.04594 0C4.73896 0 4.33848 0.0567167 3.84421 0.170508C3.34976 0.284121 2.96068 0.403286 2.67656 0.52848C2.10838 0.766989 1.50617 1.46013 0.869746 2.60766C0.290221 3.6756 0.000488281 4.73262 0.000488281 5.77794C0.000488281 6.08451 0.020369 6.38278 0.0601303 6.67281C0.0998917 6.96254 0.170937 7.28929 0.273325 7.65299C0.375535 8.01658 0.457983 8.28667 0.520312 8.46255C0.5827 8.63855 0.699178 8.95384 0.869686 9.40852C1.03996 9.86309 1.14234 10.1414 1.17643 10.2436C1.57411 11.3573 2.04569 12.3515 2.59107 13.2266C3.48838 14.681 4.71293 16.1841 6.26398 17.7353C7.81509 19.2864 9.3179 20.5108 10.7725 21.4085C11.6474 21.9538 12.642 22.4254 13.7555 22.8233C13.8578 22.8573 14.1361 22.9594 14.5905 23.1303C15.045 23.3007 15.3604 23.4171 15.5364 23.4796C15.7125 23.5422 15.9827 23.6247 16.3459 23.7271C16.71 23.8295 17.0364 23.9005 17.3262 23.9406C17.6161 23.9798 17.9144 24.0001 18.221 24.0001C19.2663 24.0001 20.3234 23.7101 21.3915 23.1307C22.5389 22.4945 23.2319 21.8922 23.4705 21.3236C23.596 21.0397 23.7149 20.6506 23.8285 20.1561C23.9424 19.6619 23.999 19.2615 23.999 18.9545C23.9994 18.795 23.9823 18.6759 23.948 18.5956Z" />
    </g>
    <defs>
      <clipPath id="clip0_619_339">
        <rect width="24" height="24"/>
      </clipPath>
    </defs>
  </symbol>

<!-- features -->
  <symbol viewBox="0 0 38 38" id="icon_design">
    <path d="M34.5484 0.451973C34.3352 0.238597 34.0378 0.130825 33.7376 0.158598C33.6123 0.169978 30.6208 0.45448 26.5182 1.83154C13.1663 5.94367 4.32971 18.8903 0.22062 28.2563C-0.0380269 28.8747 0.484552 29.7026 1.26673 29.6342L5.80532 29.1926L5.36383 33.7308C5.31546 34.3832 5.9488 35.0703 6.74181 34.7769C23.0466 27.3476 32.9919 15.9764 34.8419 1.26274C34.8693 0.962316 34.7618 0.665214 34.5484 0.451973ZM21.4105 22.7886C19.6089 24.4282 17.8329 25.8376 16.1913 27.0249V9.72159C17.9122 8.31127 19.6957 7.16818 21.4105 6.24531V22.7886ZM11.4935 30.0996C9.88013 31.0475 8.51827 31.7394 7.55508 32.196L7.94773 28.1602C8.00599 27.6351 7.52019 26.9707 6.83794 27.0505L2.80337 27.4429C4.16638 24.5511 7.8373 17.818 14.159 11.5519V28.4327C13.1848 29.0786 12.286 29.634 11.4935 30.0996ZM31.2231 7.89129C30.0298 11.428 27.7122 16.534 23.4428 20.8447V5.23296C26.2239 3.88977 30.4729 2.68579 32.6337 2.36654C32.4266 3.58 32.0109 5.55662 31.2231 7.89129Z"/>
  </symbol>

  <symbol viewBox="0 0 38 38" id="icon_material">
    <g clip-path="url(#clip0_607_1065)">
      <path d="M36.8297 15.4186H29.5561C29.5568 15.4122 29.5579 15.4059 29.5586 15.3995C30.405 14.6713 31.0815 13.8066 31.5728 12.824C31.7304 12.5089 31.7136 12.1348 31.5284 11.8352C31.3431 11.5355 31.016 11.3531 30.6637 11.3531H29.0948C28.7544 10.3901 28.2576 9.50081 27.6109 8.69788C27.6938 7.58562 27.5607 6.49735 27.2137 5.45645C27.1023 5.12226 26.8258 4.86959 26.483 4.78869C26.14 4.70772 25.7799 4.81017 25.5308 5.05918L24.4191 6.17083C23.5006 5.73175 22.5227 5.45462 21.4991 5.34356C20.7321 4.44001 19.848 3.72482 18.9217 3.26162C18.6067 3.10408 18.2326 3.12088 17.9328 3.30607C17.6332 3.49125 17.4508 3.81839 17.4508 4.17067V5.8073C16.4879 6.14765 15.5985 6.64466 14.7957 7.29128C13.6835 7.20841 12.5951 7.34156 11.5544 7.68855C11.2202 7.79994 10.9675 8.07646 10.8866 8.41925C10.8057 8.76204 10.908 9.12238 11.1571 9.37139L12.2685 10.4829C11.8292 11.402 11.5519 12.3806 11.4411 13.405C10.7601 13.991 10.1893 14.6654 9.7362 15.4186H4.17018C3.60887 15.4186 3.15381 15.8737 3.15381 16.435V20.5005C3.15381 21.0618 3.60887 21.5169 4.17018 21.5169H5.25432V36.8303C5.25432 37.3916 5.70938 37.8467 6.2707 37.8467H10.3362C10.8975 37.8467 11.3526 37.3916 11.3526 36.8303V33.3852L20.5 29.7262L29.6473 33.3852V36.8302C29.6473 37.3915 30.1024 37.8466 30.6637 37.8466H34.7292C35.2905 37.8466 35.7456 37.3915 35.7456 36.8302V21.5168H36.8297C37.391 21.5168 37.8461 21.0618 37.8461 20.5004V16.4349C37.8461 15.8736 37.391 15.4186 36.8297 15.4186V15.4186ZM13.0398 14.7231C13.2716 14.5436 13.4147 14.2728 13.4321 13.9801C13.5 12.8456 13.8237 11.7797 14.3943 10.812C14.6298 10.4128 14.5652 9.90479 14.2375 9.57704L13.9638 9.30336C14.3037 9.29293 14.6479 9.30967 14.9951 9.35364C15.286 9.3905 15.5787 9.29998 15.7979 9.10517C16.6472 8.35075 17.631 7.82501 18.722 7.54246C19.1704 7.42646 19.4836 7.02187 19.4836 6.55868V6.15653C19.7255 6.3945 19.9584 6.65733 20.179 6.94219C20.3585 7.17399 20.6293 7.31696 20.922 7.33444C22.0564 7.4022 23.1223 7.72595 24.0901 8.29661C24.4894 8.532 24.9973 8.4675 25.325 8.13982L25.5988 7.86607C25.6092 8.20588 25.5925 8.55016 25.5485 8.89742C25.5116 9.18831 25.6022 9.48096 25.797 9.70023C26.5514 10.5495 27.0771 11.5333 27.3597 12.6243C27.4758 13.0727 27.8804 13.3859 28.3436 13.3859H28.7272C28.4937 13.6342 28.2377 13.8664 27.9602 14.0813C27.7284 14.2608 27.5854 14.5316 27.5679 14.8243C27.556 15.0235 27.5354 15.2219 27.5072 15.4186H23.3743C23.4871 15.1005 23.5491 14.7585 23.5491 14.4023C23.5491 12.721 22.1813 11.3531 20.5 11.3531C18.8187 11.3531 17.4508 12.721 17.4508 14.4023C17.4508 14.7585 17.5128 15.1005 17.6257 15.4186H12.2733C12.5068 15.1702 12.7624 14.938 13.0398 14.7231ZM21.5163 14.4022C21.5163 14.9626 21.0604 15.4186 20.5 15.4186C19.9395 15.4186 19.4836 14.9626 19.4836 14.4022C19.4836 13.8418 19.9395 13.3858 20.5 13.3858C21.0604 13.3858 21.5163 13.8418 21.5163 14.4022ZM9.31982 35.8138H7.28707V21.5168H9.31982C9.31982 21.5099 9.31989 31.552 9.31982 35.8138ZM11.3526 31.1958V26.0672L17.7633 28.6315L11.3526 31.1958ZM29.6473 31.1958L23.2367 28.6315L29.6473 26.0672V31.1958ZM29.6473 23.8779L20.5 27.5368L11.3526 23.8779V21.5168H29.6473V23.8779ZM33.7129 35.8138H31.6801C31.6801 34.011 31.6801 23.6909 31.6801 21.5168H33.7129V35.8138ZM35.8134 19.4841H5.18656V17.4513H35.8134V19.4841Z"/>
    </g>
    <defs>
      <clipPath id="clip0_607_1065">
        <rect width="34.6923" height="34.6923" transform="translate(3.15381 3.1543)"/>
      </clipPath>
    </defs>
  </symbol>

  <symbol viewBox="0 0 38 38" id="icon_delivery">
    <path d="M29.3552 23.9783C26.9439 23.9783 24.9823 25.9399 24.9823 28.3513C24.9823 30.7626 26.9439 32.7243 29.3552 32.7243C31.767 32.7243 33.7282 30.7626 33.7282 28.3513C33.7282 25.9399 31.7666 23.9783 29.3552 23.9783ZM29.3552 30.5378C28.1494 30.5378 27.1687 29.5571 27.1687 28.3513C27.1687 27.1454 28.1494 26.1648 29.3552 26.1648C30.5611 26.1648 31.5417 27.1454 31.5417 28.3513C31.5417 29.5572 30.5611 30.5378 29.3552 30.5378Z"/>
    <path d="M14.4142 23.9783C12.0029 23.9783 10.0412 25.9399 10.0412 28.3513C10.0412 30.7626 12.0029 32.7243 14.4142 32.7243C16.8256 32.7243 18.7872 30.7626 18.7872 28.3513C18.7872 25.9399 16.8256 23.9783 14.4142 23.9783ZM14.4142 30.5378C13.2084 30.5378 12.2277 29.5571 12.2277 28.3513C12.2277 27.1454 13.2084 26.1648 14.4142 26.1648C15.6197 26.1648 16.6007 27.1454 16.6007 28.3513C16.6007 29.5572 15.6201 30.5378 14.4142 30.5378Z"/>
    <path d="M32.3001 11.4614C32.1142 11.0922 31.7363 10.8593 31.3231 10.8593H25.5653V13.0458H30.6489L33.6258 18.9668L35.5798 17.9843L32.3001 11.4614Z"/>
    <path d="M26.0755 27.2945H17.8033V29.481H26.0755V27.2945Z"/>
    <path d="M11.1345 27.2945H7.3446C6.74074 27.2945 6.25139 27.7839 6.25139 28.3877C6.25139 28.9916 6.74081 29.4809 7.3446 29.4809H11.1345C11.7384 29.4809 12.2277 28.9915 12.2277 28.3877C12.2277 27.7838 11.7383 27.2945 11.1345 27.2945Z"/>
    <path d="M37.6166 20.6111L35.4662 17.8415C35.2596 17.5748 34.9407 17.4188 34.6029 17.4188H26.6586V9.76607C26.6586 9.1622 26.1692 8.67285 25.5654 8.67285H7.3446C6.74074 8.67285 6.25139 9.16227 6.25139 9.76607C6.25139 10.3699 6.74081 10.8593 7.3446 10.8593H24.4721V18.512C24.4721 19.1158 24.9615 19.6052 25.5653 19.6052H34.0675L35.6596 21.6561V27.2944H32.635C32.0311 27.2944 31.5417 27.7838 31.5417 28.3876C31.5417 28.9914 32.0312 29.4808 32.635 29.4808H36.7528C37.3567 29.4808 37.8461 28.9914 37.8461 28.3876V21.2816C37.8461 21.0389 37.7652 20.8028 37.6166 20.6111Z"/>
    <path d="M11.0616 21.7554H6.03266C5.4288 21.7554 4.93945 22.2448 4.93945 22.8486C4.93945 23.4525 5.42887 23.9418 6.03266 23.9418H11.0616C11.6654 23.9418 12.1548 23.4524 12.1548 22.8486C12.1548 22.2448 11.6654 21.7554 11.0616 21.7554Z"/>
    <path d="M13.5761 17.4552H4.24702C3.64323 17.4552 3.15381 17.9446 3.15381 18.5485C3.15381 19.1524 3.64323 19.6417 4.24702 19.6417H13.5761C14.1799 19.6417 14.6693 19.1523 14.6693 18.5485C14.6693 17.9447 14.1799 17.4552 13.5761 17.4552Z"/>
    <path d="M15.3617 13.1551H6.03266C5.4288 13.1551 4.93945 13.6446 4.93945 14.2484C4.93945 14.8522 5.42887 15.3416 6.03266 15.3416H15.3617C15.9656 15.3416 16.4549 14.8522 16.4549 14.2484C16.455 13.6446 15.9656 13.1551 15.3617 13.1551Z"/>
  </symbol>

<!-- benefits -->
  <symbol viewBox="0 0 68 68" id="icon_fit">
    <path d="M53.8359 60.0312H47.8594V55.7812H50.5223C51.6225 55.7812 52.5145 54.8893 52.5145 53.7891C52.5145 52.6888 51.6225 51.7969 50.5223 51.7969H47.8594V47.8125H53.1785C54.2787 47.8125 55.1707 46.9205 55.1707 45.8203C55.1707 44.7201 54.2787 43.8281 53.1785 43.8281H47.8594V39.8438H50.5223C51.6225 39.8438 52.5145 38.9518 52.5145 37.8516C52.5145 36.7513 51.6225 35.8594 50.5223 35.8594H47.8594V31.875H53.1785C54.2787 31.875 55.1707 30.983 55.1707 29.8828C55.1707 28.7826 54.2787 27.8906 53.1785 27.8906H47.8594V23.9062H50.5223C51.6225 23.9062 52.5145 23.0143 52.5145 21.9141C52.5145 20.8138 51.6225 19.9219 50.5223 19.9219H47.8594V15.9375H53.1785C54.2787 15.9375 55.1707 15.0455 55.1707 13.9453C55.1707 12.8451 54.2787 11.9531 53.1785 11.9531H47.8594V7.96875H50.5223C51.6225 7.96875 52.5145 7.07678 52.5145 5.97656C52.5145 4.87634 51.6225 3.98438 50.5223 3.98438H47.8594V1.99219C47.8594 0.891969 46.9674 0 45.8672 0C44.767 0 43.875 0.891969 43.875 1.99219V60.0312H36.6821L37.7778 42.5H37.9051C39.0053 42.5 39.8973 41.608 39.8973 40.5078V27.2232C39.8973 22.8007 36.9982 19.0441 33.0014 17.7493C34.7475 16.7048 35.9195 14.7956 35.9195 12.6172C35.9195 9.32171 33.2384 6.64062 29.943 6.64062C26.6475 6.64062 23.9664 9.32171 23.9664 12.6172C23.9664 14.7946 25.1373 16.703 26.882 17.7479C22.8831 19.0415 19.982 22.7991 19.982 27.2232V40.5078C19.982 41.608 20.874 42.5 21.9742 42.5H22.0948L23.1905 60.0312H13.9922C12.892 60.0312 12 60.9232 12 62.0234V66.0078C12 67.108 12.892 68 13.9922 68C15.0924 68 15.9844 67.108 15.9844 66.0078V64.0156H51.8438V66.0078C51.8438 67.108 52.7357 68 53.8359 68C54.9362 68 55.8281 67.108 55.8281 66.0078V62.0234C55.8281 60.9232 54.9362 60.0312 53.8359 60.0312ZM29.943 10.625C31.0415 10.625 31.9352 11.5187 31.9352 12.6172C31.9352 13.7157 31.0415 14.6094 29.943 14.6094C28.8445 14.6094 27.9508 13.7157 27.9508 12.6172C27.9508 11.5187 28.8443 10.625 29.943 10.625ZM23.9664 27.2232C23.9664 23.9296 26.646 21.25 29.9398 21.25C33.2334 21.25 35.913 23.9296 35.913 27.2232V38.5156H23.9664V27.2232ZM26.0869 42.5H33.7856L32.6899 60.0312H27.1826L26.0869 42.5Z"/>
  </symbol>

  <symbol viewBox="0 0 68 68" id="icon_strong">
    <path d="M35.875 32.1811V21.8166H40.025C49.9181 21.8166 57.9666 13.768 57.9666 3.875C57.9666 2.8395 57.1271 2 56.0916 2H50.0646C43.0369 2 36.9411 6.06275 33.9996 11.9622C31.0576 6.06262 24.9615 2 17.9334 2H11.9084C10.8729 2 10.0334 2.8395 10.0334 3.875C10.0334 13.7681 18.082 21.8166 27.975 21.8166H32.125V32.1811C15.3249 33.1521 2 47.0815 2 64.125C2 65.1605 2.8395 66 3.875 66H64.125C65.1605 66 66 65.1605 66 64.125C66 47.0815 52.6751 33.1521 35.875 32.1811ZM50.0646 5.75H54.0933C53.1726 12.692 47.2145 18.0666 40.025 18.0666H35.9981C36.9174 11.1243 42.8751 5.75 50.0646 5.75ZM27.975 18.0666C20.7854 18.0666 14.8272 12.692 13.9067 5.75H17.9334C25.123 5.75 31.0811 11.1246 32.0016 18.0666H27.975ZM5.8105 62.25C6.7385 47.9209 17.2449 40.245 24.0917 37.6657V42.3778C24.0917 42.9499 23.8689 43.4879 23.4641 43.8926L17.4391 49.9176C15.1423 52.2145 15.1423 55.9519 17.4391 58.2487L21.44 62.25H5.8105ZM26.7434 62.25L20.0906 55.5973C19.2543 54.7609 19.2534 53.4065 20.0906 52.5692L26.1156 46.5444C27.2288 45.4314 27.8417 43.9516 27.8417 42.3778V36.5489C29.8536 36.1014 31.9191 35.875 34 35.875C38.9144 35.875 43.6772 37.1336 47.9062 39.5337L37.5223 49.9178C35.2226 52.2174 35.2178 55.9449 37.5223 58.2489L41.5234 62.25H26.7434ZM46.8266 62.25L40.1739 55.5971C39.3382 54.7616 39.3371 53.4062 40.1739 52.5692L51.1001 41.6431C57.6121 46.6034 61.6477 54.1131 62.1879 62.2499H46.8266V62.25Z"/>
  </symbol>

  <symbol viewBox="0 0 68 68" id="icon_unique">
    <path d="M67.58 64.7842C67.4752 64.6494 64.9503 61.4478 59.6006 58.2906C56.9903 56.75 53.3914 55.0512 48.7861 53.8092C49.7611 50.514 50.8711 45.7687 51.3499 40.1027C51.8914 33.6964 51.5072 27.4363 50.2076 21.4964C48.5791 14.0532 45.5041 7.10361 41.0679 0.840703C40.6944 0.313437 40.0884 0 39.4422 0C38.7961 0 38.1901 0.313305 37.8166 0.840703C36.4181 2.81509 35.155 4.85802 34.0297 6.96283C32.9044 4.85788 31.6415 2.81509 30.2428 0.840703C29.8694 0.313437 29.2633 0 28.6172 0C27.9711 0 27.3651 0.313305 26.9916 0.840703C22.5554 7.10348 19.4804 14.053 17.8518 21.4965C16.5523 27.4364 16.168 33.6964 16.7095 40.1029C17.2019 45.9283 18.3614 50.7807 19.3554 54.0843C15.1095 55.2884 11.6855 56.8436 9.12061 58.2632C3.46718 61.3926 0.622734 64.5502 0.504398 64.683C-0.0175553 65.2692 -0.146649 66.1072 0.174492 66.8232C0.495632 67.5391 1.20737 68 1.99216 68H66.0078C66.7688 68 67.4633 67.5664 67.7976 66.8828C68.1317 66.1992 68.0474 65.3849 67.58 64.7842ZM20.9628 26.9581L34.3264 17.8771C34.7222 19.1401 35.0719 20.4201 35.3722 21.7176L20.5296 31.8038C20.6034 30.2441 20.7425 28.6243 20.9628 26.9581ZM21.9738 21.4539C23.1906 16.3163 25.2642 10.9068 28.6188 5.57441C30.3273 8.279 31.7667 11.0904 32.9405 14.0015L21.9738 21.4539ZM20.4961 36.6438L36.179 25.9865C36.8241 30.3597 36.9548 34.9112 36.5666 39.6274C36.1538 44.6411 35.1975 48.9293 34.323 52.0159C30.2386 52.0394 26.5399 52.4701 23.2384 53.1424C22.2965 50.0504 21.1538 45.3767 20.6797 39.7673C20.5957 38.7749 20.5323 37.7314 20.4961 36.6438ZM34.6735 55.9971C45.4742 55.9971 52.9886 59.0514 57.3905 61.6136C58.8019 62.4352 59.9934 63.2602 60.9717 64.0156H7.43402C12.1776 60.6701 21.2129 55.9971 34.6735 55.9971ZM39.444 5.57441C45.7576 15.5693 48.4302 27.0098 47.3915 39.6274C46.9364 45.1541 45.8212 49.7995 44.8829 52.9247C42.8862 52.5547 40.7358 52.2795 38.4326 52.133C39.2726 48.9847 40.1222 44.8692 40.5251 40.1029C41.0665 33.6965 40.6823 27.4364 39.3827 21.4965C38.6317 18.0636 37.5721 14.7359 36.214 11.532C37.1285 9.54749 38.1975 7.55557 39.444 5.57441Z"/>
  </symbol>

<!-- screen-menu -->
<symbol viewBox="0 0 24 24" id="close">
  <path d="M16.2667 12L23.2 5.06667C24.2667 4 24.2667 2.4 23.2 1.46667L22.6667 0.933333C21.6 -0.133333 20 -0.133333 19.0667 0.933333L12 7.73333L5.06667 0.8C4 -0.266667 2.4 -0.266667 1.33333 0.8L0.8 1.33333C-0.266667 2.4 -0.266667 4 0.8 4.93333L7.73333 12L0.8 18.9333C-0.266667 20 -0.266667 21.6 0.8 22.5333L1.33333 23.2C2.4 24.2667 4 24.2667 4.93333 23.2L12 16.2667L18.9333 23.2C20 24.2667 21.6 24.2667 22.5333 23.2L23.0667 22.6667C24.1333 21.6 24.1333 20 23.0667 19.0667L16.2667 12Z">
</symbol>

<!--<symbol viewBox="0 0 26 24" id="open">
  <g clip-path="url(#clip0_901_432)">
    <path d="M23.9417 0H2.05833C0.866667 0 0 0.866667 0 2.05833V2.38333C0 3.46667 0.866667 4.33333 2.05833 4.33333H24.05C25.1333 4.33333 26.1083 3.46667 26.1083 2.275V2.05833C26 0.866667 25.1333 0 23.9417 0Z"/>
    <path d="M23.9417 9.75H2.05833C0.866667 9.75 0 10.725 0 11.8083V12.1333C0 13.2167 0.866667 14.1917 2.05833 14.1917H24.05C25.1333 14.1917 26.1083 13.325 26.1083 12.1333V11.8083C26 10.725 25.1333 9.75 23.9417 9.75Z"/>
    <path d="M23.9417 19.5H2.05833C0.975 19.5 0 20.3667 0 21.5583V21.8833C0 22.9667 0.866667 23.9417 2.05833 23.9417H24.05C25.1333 23.9417 26.1083 23.075 26.1083 21.8833V21.5583C26 20.475 25.1333 19.5 23.9417 19.5Z"/>
  </g>
  <defs>
    <clipPath id="clip0_901_432">
      <rect width="26" height="23.9417"/>
    </clipPath>
  </defs>
</symbol> -->


<!-- product-card__params-list -->
<symbol viewBox="0 0 38 38" id="params">
 <path xmlns="http://www.w3.org/2000/svg" d="M18.2132 0.326006L11.5439 6.9953C11.1091 7.43 11.1091 8.13493 11.5439 8.56971L14.693 11.7188C14.9565 11.9823 15.3191 12.0863 15.6606 12.0302V15.6601H12.0307C12.088 15.3123 11.9769 14.9501 11.7194 14.6926L8.57027 11.5434C8.13587 11.109 7.43056 11.1087 6.99586 11.5434L0.326568 18.2127C-0.108205 18.6474 -0.108205 19.3524 0.326568 19.7871L6.99586 26.4564C7.43027 26.8909 8.13557 26.8912 8.57027 26.4564L11.7194 23.3073C11.9771 23.0496 12.0879 22.6873 12.0307 22.3397H15.6605V25.9696C15.3191 25.9134 14.9563 26.0176 14.6929 26.281L11.5438 29.4301C11.1091 29.8648 11.1091 30.5697 11.5438 31.0045L18.2131 37.6738C18.6479 38.1086 19.3528 38.1086 19.7875 37.6738L26.4568 31.0045C26.8912 30.57 26.8916 29.8648 26.4568 29.4301L23.3077 26.281C23.0443 26.0176 22.6816 25.9135 22.3402 25.9696V22.3398H25.9701C25.9128 22.6877 26.0239 23.0499 26.2815 23.3073L29.4306 26.4565C29.865 26.891 30.5703 26.8913 31.005 26.4565L37.6743 19.7872C38.109 19.3525 38.109 18.6476 37.6743 18.2128L31.005 11.5435C30.5706 11.109 29.8653 11.1087 29.4306 11.5435L26.2815 14.6927C26.0237 14.9504 25.9129 15.3126 25.9701 15.6602H22.3402V12.0304C22.6816 12.0863 23.0443 11.9824 23.3077 11.719L26.4568 8.56985C26.8914 8.13538 26.8915 7.43022 26.4568 6.99545L19.7875 0.326154C19.3528 -0.108693 18.6479 -0.108693 18.2132 0.326006V0.326006ZM22.5206 9.35724L22.0142 8.85085C21.3157 8.15223 20.1137 8.64682 20.1137 9.63801V16.7734C20.1137 17.3882 20.6121 17.8867 21.2269 17.8867H28.3623C29.3507 17.8867 29.8502 16.6869 29.1495 15.9862L28.6431 15.4798L30.2178 13.9051L35.3127 19L30.2179 24.0949L28.6432 22.5202L29.1496 22.0138C29.8484 21.3148 29.3532 20.1132 28.3623 20.1132H21.2269C20.6121 20.1132 20.1137 20.6117 20.1137 21.2265V28.3619C20.1137 29.3536 21.3161 29.8473 22.0141 29.1491L22.5205 28.6427L24.0952 30.2174L19.0004 35.3123L13.9056 30.2173L15.4802 28.6426L15.9867 29.149C16.6853 29.8479 17.8871 29.3527 17.8871 28.3618V21.2265C17.8871 20.6117 17.3886 20.1132 16.7738 20.1132H9.63842C8.65005 20.1132 8.15056 21.3131 8.85126 22.0137L9.35765 22.5201L7.78295 24.0949L2.68806 19L7.78288 13.905L9.35758 15.4798L8.85118 15.9862C8.15234 16.6851 8.64753 17.8867 9.63842 17.8867H16.7738C17.3886 17.8867 17.8871 17.3882 17.8871 16.7734V9.63801C17.8871 8.65009 16.6874 8.15007 15.9867 8.85085L15.4802 9.35724L13.9056 7.78254L19.0004 2.68757L24.0952 7.78254L22.5206 9.35724Z" fill="#000"/>
</symbol>


<!-- products__icon -->
 <symbol viewBox="0 0 24 40" id="left">
    <path d="M19 34L6.91422 21.9142C6.13317 21.1332 6.13317 19.8668 6.91421 19.0858L19 7" stroke="black" stroke-width="2" stroke-linecap="round"/>
  </symbol>

<symbol viewBox="0 0 24 40" id="right">
    <path d="M5 6L17.0858 18.0858C17.8668 18.8668 17.8668 20.1332 17.0858 20.9142L5 33" stroke="black" stroke-width="2" stroke-linecap="round"/>
  </symbol>


  <symbol fill="none" xmlns="http://www.w3.org/2000/svg" viewBox="0 0 32 32" id="thickness">
    <path d="M26.5938 9.48438H5.45312C4.6765 9.48438 4.04688 10.114 4.04688 10.8906C4.04688 11.6673 4.6765 12.2969 5.45312 12.2969H26.5938C27.3704 12.2969 28 11.6673 28 10.8906C28 10.114 27.3704 9.48438 26.5938 9.48438Z" fill="black"></path>
    <path d="M27.0625 4H4.9375C4.41972 4 4 4.41972 4 4.9375C4 5.45528 4.41972 5.875 4.9375 5.875H27.0625C27.5803 5.875 28 5.45528 28 4.9375C28 4.41972 27.5803 4 27.0625 4Z" fill="black"></path>
    <path d="M25.6562 23.3125H6.39062C5.09622 23.3125 4.04688 24.3618 4.04688 25.6562C4.04688 26.9507 5.09622 28 6.39062 28H25.6562C26.9507 28 28 26.9507 28 25.6562C28 24.3618 26.9507 23.3125 25.6562 23.3125Z" fill="black"></path>
    <path d="M26.125 15.9062H5.92188C4.88636 15.9062 4.04688 16.7457 4.04688 17.7812C4.04688 18.8168 4.88636 19.6562 5.92188 19.6562H26.125C27.1605 19.6562 28 18.8168 28 17.7812C28 16.7457 27.1605 15.9062 26.125 15.9062Z" fill="black"></path>
  </symbol>

  <symbol fill="none" xmlns="http://www.w3.org/2000/svg" viewBox="0 0 32 32" id="length">
    <path d="M11.0064 13.0953L11.0072 9L4 16.0096L11.0072 23.0185L11.0064 18.9232L20.992 18.9248V23.0185L28 16.0096L20.992 9V13.0953H11.0064Z" fill="#010002"></path>
  </symbol>

  <symbol fill="none" xmlns="http://www.w3.org/2000/svg" viewBox="0 0 32 32" id="width">
    <path d="M10.4084 17.4796L7.51321 14.5832L7.51491 24.4947L17.4258 24.4958L14.5294 21.6006L21.5914 14.5408L24.486 17.4355L24.4855 7.52409L14.5735 7.52295L17.4693 10.4188L10.4084 17.4796Z" fill="#010002"></path>
  </symbol>

  <symbol fill="none" xmlns="http://www.w3.org/2000/svg" viewBox="0 0 32 32" id="weight">
    <path d="M26.983 25.137L24.8878 12.6207C24.6908 11.4406 23.6687 10.5781 22.4724 10.5781H19.3245C19.6937 9.93501 19.9047 9.19002 19.9047 8.39667C19.9047 5.97245 17.9328 4 15.5081 4C13.0838 4 11.1114 5.97245 11.1114 8.39667C11.1114 9.19002 11.3225 9.93501 11.6916 10.5781H8.54367C7.34689 10.5781 6.32532 11.4416 6.12828 12.6218L4.03366 25.1396C3.91461 25.8492 4.11476 26.5797 4.58006 27.1287C5.04588 27.6782 5.72901 28 6.44957 28H24.5686C25.2892 28 25.9723 27.6782 26.4381 27.1287C26.9029 26.5786 27.1025 25.8472 26.983 25.137ZM15.5086 6.56148C16.5203 6.56148 17.3438 7.38498 17.3438 8.39719C17.3438 9.40941 16.5203 10.2324 15.5086 10.2324C14.4964 10.2324 13.6729 9.40889 13.6729 8.39667C13.6729 7.38446 14.4964 6.56148 15.5086 6.56148Z" fill="black"></path>
  </symbol>

  <symbol fill="none" xmlns="http://www.w3.org/2000/svg" viewBox="0 0 32 32" id="time">
    <path d="M24 26H23V22.727C23 21.099 22.307 19.541 21.097 18.453L19.404 16.93C19.137 16.689 18.99 16.359 18.99 16C18.99 15.641 19.137 15.311 19.404 15.071L21.097 13.548C22.307 12.458 23 10.901 23 9.273V6H24C24.553 6 25 5.552 25 5C25 4.448 24.553 4 24 4H8C7.447 4 7 4.448 7 5C7 5.552 7.447 6 8 6H9V9.273C9 10.901 9.693 12.459 10.903 13.547L12.596 15.07C12.863 15.311 13.01 15.641 13.01 16C13.01 16.359 12.863 16.689 12.596 16.929L10.903 18.452C9.693 19.542 9 21.099 9 22.727V26H8C7.447 26 7 26.448 7 27C7 27.552 7.447 28 8 28H24C24.553 28 25 27.552 25 27C25 26.448 24.553 26 24 26ZM12 22.829C12 22.094 12.286 21.404 12.806 20.884L15.47 18.22C15.763 17.927 16.238 17.927 16.531 18.22L19.195 20.884C19.715 21.404 20.001 22.094 20.001 22.829V26H12V22.829Z" fill="black"></path>
  </symbol>


</svg>
 </svg>



